<svg class="svg-icon" style="width: 1em; height: 1em;vertical-align: middle;fill: currentColor;overflow: hidden;" viewBox="0 0 1024 1024" version="1.1" xmlns="http://www.w3.org/2000/svg"><path d="M556.8 94.83c-247 0-448 201-448 448s201 448 448 448 448-201 448-448-200.97-448-448-448z m145.36 387.61l-125.88 72.68v65.62a19.48 19.48 0 1 1-39 0v-43.13l-45.48 26.26a19.48 19.48 0 0 1-19.48-33.75l65-37.5V270.13a19.48 19.48 0 1 1 39 0v240l106.36-61.43a19.48 19.48 0 1 1 19.48 33.74z" fill="#22B573" /></svg>